<mxfile host="Electron" modified="2023-09-08T05:49:18.366Z" agent="Mozilla/5.0 (Windows NT 10.0; Win64; x64) AppleWebKit/537.36 (KHTML, like Gecko) draw.io/21.6.8 Chrome/114.0.5735.289 Electron/25.5.0 Safari/537.36" etag="f1j1pjddwMcKqgNmmzLP" version="21.6.8" type="device">
  <diagram name="Page-1" id="PdGhhgiaSFnorar0To36">
    <mxGraphModel dx="2390" dy="1393" grid="1" gridSize="10" guides="1" tooltips="1" connect="1" arrows="1" fold="1" page="1" pageScale="1" pageWidth="1600" pageHeight="900" math="0" shadow="0">
      <root>
        <mxCell id="0" />
        <mxCell id="1" parent="0" />
        <mxCell id="fvXsnm61Bii9Onc5ht03-1" value="" style="rounded=0;whiteSpace=wrap;html=1;" vertex="1" parent="1">
          <mxGeometry x="420" y="135" width="670" height="630" as="geometry" />
        </mxCell>
        <mxCell id="fvXsnm61Bii9Onc5ht03-2" value="Customer" style="shape=umlActor;verticalLabelPosition=bottom;verticalAlign=top;html=1;outlineConnect=0;" vertex="1" parent="1">
          <mxGeometry x="320" y="380" width="30" height="60" as="geometry" />
        </mxCell>
        <mxCell id="fvXsnm61Bii9Onc5ht03-3" value="Admin" style="shape=umlActor;verticalLabelPosition=bottom;verticalAlign=top;html=1;outlineConnect=0;" vertex="1" parent="1">
          <mxGeometry x="1211" y="639" width="30" height="60" as="geometry" />
        </mxCell>
        <mxCell id="fvXsnm61Bii9Onc5ht03-4" value="Employee" style="shape=umlActor;verticalLabelPosition=bottom;verticalAlign=top;html=1;outlineConnect=0;" vertex="1" parent="1">
          <mxGeometry x="1201" y="490" width="30" height="60" as="geometry" />
        </mxCell>
        <mxCell id="fvXsnm61Bii9Onc5ht03-5" style="rounded=0;orthogonalLoop=1;jettySize=auto;html=1;exitX=0;exitY=0.5;exitDx=0;exitDy=0;entryX=0.5;entryY=0.5;entryDx=0;entryDy=0;entryPerimeter=0;endArrow=none;endFill=0;startArrow=classic;startFill=1;" edge="1" parent="1" source="fvXsnm61Bii9Onc5ht03-7" target="fvXsnm61Bii9Onc5ht03-2">
          <mxGeometry relative="1" as="geometry" />
        </mxCell>
        <mxCell id="fvXsnm61Bii9Onc5ht03-6" style="rounded=0;orthogonalLoop=1;jettySize=auto;html=1;exitX=1;exitY=0.5;exitDx=0;exitDy=0;entryX=0;entryY=0.5;entryDx=0;entryDy=0;dashed=1;endArrow=none;endFill=0;" edge="1" parent="1" source="fvXsnm61Bii9Onc5ht03-7" target="fvXsnm61Bii9Onc5ht03-45">
          <mxGeometry relative="1" as="geometry" />
        </mxCell>
        <mxCell id="fvXsnm61Bii9Onc5ht03-7" value="Register/Login" style="ellipse;whiteSpace=wrap;html=1;" vertex="1" parent="1">
          <mxGeometry x="705" y="180" width="120" height="40" as="geometry" />
        </mxCell>
        <mxCell id="fvXsnm61Bii9Onc5ht03-8" style="rounded=0;orthogonalLoop=1;jettySize=auto;html=1;exitX=0;exitY=0.5;exitDx=0;exitDy=0;entryX=0.5;entryY=0.5;entryDx=0;entryDy=0;entryPerimeter=0;startArrow=classic;startFill=1;endArrow=none;endFill=0;" edge="1" parent="1" source="fvXsnm61Bii9Onc5ht03-11" target="fvXsnm61Bii9Onc5ht03-2">
          <mxGeometry relative="1" as="geometry" />
        </mxCell>
        <mxCell id="fvXsnm61Bii9Onc5ht03-9" style="rounded=0;orthogonalLoop=1;jettySize=auto;html=1;entryX=0;entryY=0.5;entryDx=0;entryDy=0;dashed=1;endArrow=none;endFill=0;exitX=1;exitY=0.5;exitDx=0;exitDy=0;" edge="1" parent="1" source="fvXsnm61Bii9Onc5ht03-11" target="fvXsnm61Bii9Onc5ht03-45">
          <mxGeometry relative="1" as="geometry" />
        </mxCell>
        <mxCell id="fvXsnm61Bii9Onc5ht03-10" style="rounded=0;orthogonalLoop=1;jettySize=auto;html=1;entryX=0;entryY=0.5;entryDx=0;entryDy=0;dashed=1;endArrow=none;endFill=0;exitX=1;exitY=0.5;exitDx=0;exitDy=0;" edge="1" parent="1" source="fvXsnm61Bii9Onc5ht03-11" target="fvXsnm61Bii9Onc5ht03-47">
          <mxGeometry relative="1" as="geometry" />
        </mxCell>
        <mxCell id="fvXsnm61Bii9Onc5ht03-11" value="Book Appointment" style="ellipse;whiteSpace=wrap;html=1;" vertex="1" parent="1">
          <mxGeometry x="705" y="230" width="120" height="40" as="geometry" />
        </mxCell>
        <mxCell id="fvXsnm61Bii9Onc5ht03-12" style="rounded=0;orthogonalLoop=1;jettySize=auto;html=1;entryX=0.5;entryY=0.5;entryDx=0;entryDy=0;entryPerimeter=0;startArrow=classic;startFill=1;endArrow=none;endFill=0;exitX=0;exitY=0.5;exitDx=0;exitDy=0;" edge="1" parent="1" source="fvXsnm61Bii9Onc5ht03-14" target="fvXsnm61Bii9Onc5ht03-2">
          <mxGeometry relative="1" as="geometry" />
        </mxCell>
        <mxCell id="fvXsnm61Bii9Onc5ht03-13" style="rounded=0;orthogonalLoop=1;jettySize=auto;html=1;entryX=0;entryY=0.5;entryDx=0;entryDy=0;dashed=1;endArrow=none;endFill=0;exitX=1;exitY=0.5;exitDx=0;exitDy=0;" edge="1" parent="1" source="fvXsnm61Bii9Onc5ht03-14" target="fvXsnm61Bii9Onc5ht03-45">
          <mxGeometry relative="1" as="geometry" />
        </mxCell>
        <mxCell id="fvXsnm61Bii9Onc5ht03-14" value="View/Manage Profile" style="ellipse;whiteSpace=wrap;html=1;" vertex="1" parent="1">
          <mxGeometry x="705" y="290" width="120" height="40" as="geometry" />
        </mxCell>
        <mxCell id="fvXsnm61Bii9Onc5ht03-15" style="rounded=0;orthogonalLoop=1;jettySize=auto;html=1;exitX=1;exitY=0.5;exitDx=0;exitDy=0;entryX=0.5;entryY=0.5;entryDx=0;entryDy=0;entryPerimeter=0;endArrow=none;endFill=0;startArrow=classic;startFill=1;" edge="1" parent="1" source="fvXsnm61Bii9Onc5ht03-16" target="fvXsnm61Bii9Onc5ht03-3">
          <mxGeometry relative="1" as="geometry" />
        </mxCell>
        <mxCell id="fvXsnm61Bii9Onc5ht03-16" value="Manage Employees" style="ellipse;whiteSpace=wrap;html=1;" vertex="1" parent="1">
          <mxGeometry x="705" y="450" width="120" height="40" as="geometry" />
        </mxCell>
        <mxCell id="fvXsnm61Bii9Onc5ht03-17" style="rounded=0;orthogonalLoop=1;jettySize=auto;html=1;exitX=1;exitY=0.5;exitDx=0;exitDy=0;entryX=0.5;entryY=0.5;entryDx=0;entryDy=0;entryPerimeter=0;startArrow=classic;startFill=1;endArrow=none;endFill=0;" edge="1" parent="1" source="fvXsnm61Bii9Onc5ht03-18" target="fvXsnm61Bii9Onc5ht03-4">
          <mxGeometry relative="1" as="geometry" />
        </mxCell>
        <mxCell id="fvXsnm61Bii9Onc5ht03-18" value="Update Availability" style="ellipse;whiteSpace=wrap;html=1;" vertex="1" parent="1">
          <mxGeometry x="705" y="390" width="120" height="40" as="geometry" />
        </mxCell>
        <mxCell id="fvXsnm61Bii9Onc5ht03-19" style="rounded=0;orthogonalLoop=1;jettySize=auto;html=1;exitX=1;exitY=0.5;exitDx=0;exitDy=0;entryX=0.5;entryY=0.5;entryDx=0;entryDy=0;entryPerimeter=0;startArrow=classic;startFill=1;endArrow=none;endFill=0;" edge="1" parent="1" source="fvXsnm61Bii9Onc5ht03-20" target="fvXsnm61Bii9Onc5ht03-4">
          <mxGeometry relative="1" as="geometry" />
        </mxCell>
        <mxCell id="fvXsnm61Bii9Onc5ht03-20" value="Check Schedule" style="ellipse;whiteSpace=wrap;html=1;" vertex="1" parent="1">
          <mxGeometry x="705" y="340" width="120" height="40" as="geometry" />
        </mxCell>
        <mxCell id="fvXsnm61Bii9Onc5ht03-21" style="rounded=0;orthogonalLoop=1;jettySize=auto;html=1;entryX=0.5;entryY=0.5;entryDx=0;entryDy=0;entryPerimeter=0;startArrow=classic;startFill=1;endArrow=none;endFill=0;exitX=0;exitY=0.5;exitDx=0;exitDy=0;" edge="1" parent="1" source="fvXsnm61Bii9Onc5ht03-22" target="fvXsnm61Bii9Onc5ht03-2">
          <mxGeometry relative="1" as="geometry" />
        </mxCell>
        <mxCell id="fvXsnm61Bii9Onc5ht03-22" value="Redeem Rewards" style="ellipse;whiteSpace=wrap;html=1;" vertex="1" parent="1">
          <mxGeometry x="705" y="620" width="120" height="40" as="geometry" />
        </mxCell>
        <mxCell id="fvXsnm61Bii9Onc5ht03-23" style="rounded=0;orthogonalLoop=1;jettySize=auto;html=1;exitX=1;exitY=0.5;exitDx=0;exitDy=0;entryX=0.5;entryY=0.5;entryDx=0;entryDy=0;entryPerimeter=0;endArrow=none;endFill=0;startArrow=classic;startFill=1;" edge="1" parent="1" source="fvXsnm61Bii9Onc5ht03-24" target="fvXsnm61Bii9Onc5ht03-3">
          <mxGeometry relative="1" as="geometry" />
        </mxCell>
        <mxCell id="fvXsnm61Bii9Onc5ht03-24" value="Manage Services" style="ellipse;whiteSpace=wrap;html=1;" vertex="1" parent="1">
          <mxGeometry x="705" y="560" width="120" height="40" as="geometry" />
        </mxCell>
        <mxCell id="fvXsnm61Bii9Onc5ht03-25" style="rounded=0;orthogonalLoop=1;jettySize=auto;html=1;entryX=0.5;entryY=0.5;entryDx=0;entryDy=0;entryPerimeter=0;endArrow=none;endFill=0;startArrow=classic;startFill=1;" edge="1" parent="1" source="fvXsnm61Bii9Onc5ht03-26" target="fvXsnm61Bii9Onc5ht03-3">
          <mxGeometry relative="1" as="geometry" />
        </mxCell>
        <mxCell id="fvXsnm61Bii9Onc5ht03-26" value="Update System Content" style="ellipse;whiteSpace=wrap;html=1;" vertex="1" parent="1">
          <mxGeometry x="705" y="510" width="120" height="40" as="geometry" />
        </mxCell>
        <mxCell id="fvXsnm61Bii9Onc5ht03-27" style="rounded=0;orthogonalLoop=1;jettySize=auto;html=1;entryX=0.5;entryY=0.5;entryDx=0;entryDy=0;entryPerimeter=0;endArrow=none;endFill=0;startArrow=classic;startFill=1;exitX=1;exitY=0.5;exitDx=0;exitDy=0;" edge="1" parent="1" source="fvXsnm61Bii9Onc5ht03-28" target="fvXsnm61Bii9Onc5ht03-3">
          <mxGeometry relative="1" as="geometry" />
        </mxCell>
        <mxCell id="fvXsnm61Bii9Onc5ht03-28" value="Update Security Settings" style="ellipse;whiteSpace=wrap;html=1;" vertex="1" parent="1">
          <mxGeometry x="705" y="680" width="120" height="40" as="geometry" />
        </mxCell>
        <mxCell id="fvXsnm61Bii9Onc5ht03-29" value="MarryAnne Hair Salon System" style="text;html=1;strokeColor=none;fillColor=none;align=center;verticalAlign=middle;whiteSpace=wrap;rounded=0;" vertex="1" parent="1">
          <mxGeometry x="610" y="140" width="170" height="30" as="geometry" />
        </mxCell>
        <mxCell id="fvXsnm61Bii9Onc5ht03-30" value="Malicious User" style="shape=umlActor;verticalLabelPosition=bottom;verticalAlign=top;html=1;outlineConnect=0;" vertex="1" parent="1">
          <mxGeometry x="310" y="180" width="30" height="60" as="geometry" />
        </mxCell>
        <mxCell id="fvXsnm61Bii9Onc5ht03-31" value="Data Thief" style="shape=umlActor;verticalLabelPosition=bottom;verticalAlign=top;html=1;outlineConnect=0;" vertex="1" parent="1">
          <mxGeometry x="1201" y="124" width="30" height="60" as="geometry" />
        </mxCell>
        <mxCell id="fvXsnm61Bii9Onc5ht03-32" value="Competing Salon" style="shape=umlActor;verticalLabelPosition=bottom;verticalAlign=top;html=1;outlineConnect=0;" vertex="1" parent="1">
          <mxGeometry x="1201" y="323" width="30" height="60" as="geometry" />
        </mxCell>
        <mxCell id="fvXsnm61Bii9Onc5ht03-33" style="rounded=0;orthogonalLoop=1;jettySize=auto;html=1;exitX=0;exitY=0.5;exitDx=0;exitDy=0;entryX=0.5;entryY=0.5;entryDx=0;entryDy=0;entryPerimeter=0;endArrow=none;endFill=0;startArrow=classic;startFill=1;" edge="1" parent="1" source="fvXsnm61Bii9Onc5ht03-35" target="fvXsnm61Bii9Onc5ht03-30">
          <mxGeometry relative="1" as="geometry" />
        </mxCell>
        <mxCell id="fvXsnm61Bii9Onc5ht03-34" style="rounded=0;orthogonalLoop=1;jettySize=auto;html=1;exitX=1;exitY=0.5;exitDx=0;exitDy=0;entryX=0;entryY=0.5;entryDx=0;entryDy=0;dashed=1;endArrow=none;endFill=0;" edge="1" parent="1" source="fvXsnm61Bii9Onc5ht03-35" target="fvXsnm61Bii9Onc5ht03-7">
          <mxGeometry relative="1" as="geometry" />
        </mxCell>
        <mxCell id="fvXsnm61Bii9Onc5ht03-35" value="&lt;font color=&quot;#030303&quot;&gt;Brute Force Login&lt;/font&gt;" style="ellipse;whiteSpace=wrap;html=1;gradientColor=none;fillColor=#FF9999;" vertex="1" parent="1">
          <mxGeometry x="460" y="170" width="120" height="40" as="geometry" />
        </mxCell>
        <mxCell id="fvXsnm61Bii9Onc5ht03-36" style="rounded=0;orthogonalLoop=1;jettySize=auto;html=1;entryX=0.5;entryY=0.5;entryDx=0;entryDy=0;entryPerimeter=0;endArrow=none;endFill=0;startArrow=classic;startFill=1;" edge="1" parent="1" source="fvXsnm61Bii9Onc5ht03-38" target="fvXsnm61Bii9Onc5ht03-30">
          <mxGeometry relative="1" as="geometry" />
        </mxCell>
        <mxCell id="fvXsnm61Bii9Onc5ht03-37" style="rounded=0;orthogonalLoop=1;jettySize=auto;html=1;exitX=1;exitY=0.5;exitDx=0;exitDy=0;entryX=0;entryY=0.5;entryDx=0;entryDy=0;dashed=1;endArrow=none;endFill=0;" edge="1" parent="1" source="fvXsnm61Bii9Onc5ht03-38" target="fvXsnm61Bii9Onc5ht03-11">
          <mxGeometry relative="1" as="geometry" />
        </mxCell>
        <mxCell id="fvXsnm61Bii9Onc5ht03-38" value="&lt;font color=&quot;#030303&quot;&gt;Fake Appointments&lt;/font&gt;" style="ellipse;whiteSpace=wrap;html=1;fillColor=#FF9999;" vertex="1" parent="1">
          <mxGeometry x="460" y="220" width="120" height="40" as="geometry" />
        </mxCell>
        <mxCell id="fvXsnm61Bii9Onc5ht03-39" style="rounded=0;orthogonalLoop=1;jettySize=auto;html=1;entryX=1;entryY=0.5;entryDx=0;entryDy=0;dashed=1;endArrow=none;endFill=0;exitX=0;exitY=0.5;exitDx=0;exitDy=0;" edge="1" parent="1" source="fvXsnm61Bii9Onc5ht03-43" target="fvXsnm61Bii9Onc5ht03-7">
          <mxGeometry relative="1" as="geometry" />
        </mxCell>
        <mxCell id="fvXsnm61Bii9Onc5ht03-40" style="rounded=0;orthogonalLoop=1;jettySize=auto;html=1;entryX=1;entryY=0.5;entryDx=0;entryDy=0;dashed=1;endArrow=none;endFill=0;exitX=0;exitY=0.5;exitDx=0;exitDy=0;" edge="1" parent="1" source="fvXsnm61Bii9Onc5ht03-43" target="fvXsnm61Bii9Onc5ht03-11">
          <mxGeometry relative="1" as="geometry" />
        </mxCell>
        <mxCell id="fvXsnm61Bii9Onc5ht03-41" style="rounded=0;orthogonalLoop=1;jettySize=auto;html=1;entryX=1;entryY=0.5;entryDx=0;entryDy=0;dashed=1;endArrow=none;endFill=0;exitX=0;exitY=0.5;exitDx=0;exitDy=0;" edge="1" parent="1" source="fvXsnm61Bii9Onc5ht03-43" target="fvXsnm61Bii9Onc5ht03-14">
          <mxGeometry relative="1" as="geometry" />
        </mxCell>
        <mxCell id="fvXsnm61Bii9Onc5ht03-42" style="rounded=0;orthogonalLoop=1;jettySize=auto;html=1;entryX=0.5;entryY=0.5;entryDx=0;entryDy=0;entryPerimeter=0;startArrow=classic;startFill=1;endArrow=none;endFill=0;exitX=1;exitY=0.5;exitDx=0;exitDy=0;" edge="1" parent="1" source="fvXsnm61Bii9Onc5ht03-43" target="fvXsnm61Bii9Onc5ht03-31">
          <mxGeometry relative="1" as="geometry" />
        </mxCell>
        <mxCell id="fvXsnm61Bii9Onc5ht03-43" value="&lt;font color=&quot;#030303&quot;&gt;Data Breach&lt;/font&gt;" style="ellipse;whiteSpace=wrap;html=1;gradientColor=none;fillColor=#FF9999;" vertex="1" parent="1">
          <mxGeometry x="940" y="164" width="120" height="40" as="geometry" />
        </mxCell>
        <mxCell id="fvXsnm61Bii9Onc5ht03-44" style="rounded=0;orthogonalLoop=1;jettySize=auto;html=1;entryX=0.5;entryY=0.5;entryDx=0;entryDy=0;entryPerimeter=0;startArrow=classic;startFill=1;endArrow=none;endFill=0;" edge="1" parent="1" source="fvXsnm61Bii9Onc5ht03-45" target="fvXsnm61Bii9Onc5ht03-32">
          <mxGeometry relative="1" as="geometry" />
        </mxCell>
        <mxCell id="fvXsnm61Bii9Onc5ht03-45" value="&lt;font color=&quot;#030303&quot;&gt;Service Disruption&lt;/font&gt;" style="ellipse;whiteSpace=wrap;html=1;gradientColor=none;fillColor=#FF9999;" vertex="1" parent="1">
          <mxGeometry x="940" y="333" width="120" height="40" as="geometry" />
        </mxCell>
        <mxCell id="fvXsnm61Bii9Onc5ht03-46" style="rounded=0;orthogonalLoop=1;jettySize=auto;html=1;entryX=0.5;entryY=0.5;entryDx=0;entryDy=0;entryPerimeter=0;startArrow=classic;startFill=1;endArrow=none;endFill=0;exitX=1;exitY=0.5;exitDx=0;exitDy=0;" edge="1" parent="1" source="fvXsnm61Bii9Onc5ht03-47" target="fvXsnm61Bii9Onc5ht03-32">
          <mxGeometry relative="1" as="geometry" />
        </mxCell>
        <mxCell id="fvXsnm61Bii9Onc5ht03-47" value="&lt;font color=&quot;#030303&quot;&gt;Fake Appointments&lt;/font&gt;" style="ellipse;whiteSpace=wrap;html=1;gradientColor=none;fillColor=#FF9999;" vertex="1" parent="1">
          <mxGeometry x="940" y="253" width="120" height="40" as="geometry" />
        </mxCell>
      </root>
    </mxGraphModel>
  </diagram>
</mxfile>
